<?xml version="1.0" encoding="utf-8"?>
<!-- Generator: Adobe Illustrator 19.2.1, SVG Export Plug-In . SVG Version: 6.00 Build 0)  -->
<svg version="1.1" id="layer" xmlns="http://www.w3.org/2000/svg" xmlns:xlink="http://www.w3.org/1999/xlink" x="0px" y="0px"
	 viewBox="0 0 652 652" style="enable-background:new 0 0 652 652;" xml:space="preserve">
<path d="M105.9,206.2v99.6H66v-99.6H26.1v239.1H66v-99.6h39.9v99.6h39.9V206.2H105.9 M266.2,206.2v189.6c0,5.3-4.3,10.1-10.1,10.1
	h-20.2c-5.3,0-10.1-4.3-10.1-10.1V206.2h-39.5v199.7c0,22.1,17.8,39.9,39.9,39.9h39.9c22.1,0,39.9-17.8,39.9-39.9V206.2H266.2
	 M626.1,246.1v-39.9H506.3v239.1h119.8v-39.9h-79.9v-59.7h39.9v-39.9h-39.9v-59.7H626.1 M465.8,266.3v-20.2
	c0-22.1-17.8-39.9-39.9-39.9H386c-22.1,0-39.9,17.8-39.9,39.9v159.7c0,22.1,17.8,39.9,39.9,39.9h39.9c22.1,0,39.9-17.8,39.9-39.9
	v-99.6h-59.7v39.9h20.2v49.6c0,5.3-4.3,10.1-10.1,10.1h-20.2c-5.3,0-10.1-4.3-10.1-10.1V256.2c0-5.3,4.3-10.1,10.1-10.1h20.2
	c5.3,0,10.1,4.3,10.1,10.1v10.1H465.8"/>
</svg>
